<svg height="512" viewBox="0 0 64 64" width="512" xmlns="http://www.w3.org/2000/svg"><g id="Flat"><g id="Color_copy" data-name="Color copy"><g><path d="m3 28v14c0 4.418 12.984 8 29 8s29-3.582 29-8v-14l-29-6z" fill="#fcbc04"/><path d="m18 43v-14l-15-1v14c0 4.418 12.984 8 29 8 .308 0 .613 0 .919-.006-8.897-1.367-14.919-3.986-14.919-6.994z" fill="#e59730"/><path d="m32 27 23 5.871c3.761-1.349 6-3.037 6-4.871 0-4.418-12.984-8-29-8s-29 3.582-29 8 12.984 8 29 8c2.8 0 5.5-.112 8.064-.316z" fill="#f9e109"/><path d="m54.415 32.723-22.415-5.723 8.064 8.684h-.064v14a60.564 60.564 0 0 0 15-2.814v-13.87z" fill="#e59730"/><circle cx="42" cy="36" fill="#b27525" r="2"/><circle cx="49" cy="42" fill="#b27525" r="2"/><g><path d="m31.969 45.826a2.965 2.965 0 0 1 -.969.174 2.992 2.992 0 0 1 -1.313-5.685l-2.111-5.1a2 2 0 1 1 -1.576-3.215 1.919 1.919 0 0 1 .253.026l-1.253-3.026h-6v14.485l-5.314 12.829a15.959 15.959 0 0 0 5.314 3.522v1.164h6a15.95 15.95 0 0 0 11.314-4.686z" fill="#f9e109"/><path d="m13.687 56.314a15.93 15.93 0 0 0 5.313 3.522v1.164h6a15.948 15.948 0 0 0 11.313-4.686z" fill="#e59730"/><path d="m19 29-5.07 12.24a1.993 1.993 0 0 1 -.93 3.76 1.968 1.968 0 0 1 -.587-.1l-4.727 11.414a16 16 0 0 0 22.628 0z" fill="#fcbc04"/><g fill="#e59730"><circle cx="22" cy="55" r="2"/><circle cx="14" cy="54" r="2"/><circle cx="20" cy="47" r="2"/><circle cx="19" cy="40" r="1"/><circle cx="30" cy="50" r="1"/></g></g><g fill="#b27525"><circle cx="49" cy="36" r="1"/><circle cx="44" cy="45" r="1"/></g></g></g></g></svg>